<?xml version="1.0" encoding="utf-8"?><svg xmlns="http://www.w3.org/2000/svg" xmlns:xlink="http://www.w3.org/1999/xlink"><symbol fill="none" viewBox="0 0 16 14" id="arrow-black-left" xmlns="http://www.w3.org/2000/svg"><path d="M7 1L1 7m0 0l6 6M1 7h15" stroke="#1C1C1C"/></symbol><symbol fill="none" viewBox="0 0 16 14" id="arrow-black-right" xmlns="http://www.w3.org/2000/svg"><path d="M9 13l6-6m0 0L9 1m6 6H0" stroke="#1C1C1C"/></symbol><symbol fill="none" viewBox="0 0 16 14" id="arrow-white-left" xmlns="http://www.w3.org/2000/svg"><path d="M7 1L1 7m0 0l6 6M1 7h15" stroke="#fff"/></symbol><symbol fill="none" viewBox="0 0 16 14" id="arrow-white-right" xmlns="http://www.w3.org/2000/svg"><path d="M9 13l6-6m0 0L9 1m6 6H0" stroke="#fff"/></symbol><symbol fill="none" viewBox="0 0 15 15" id="icon-cart" xmlns="http://www.w3.org/2000/svg"><path d="M1.016 6.179A1 1 0 012 5h11.207a1 1 0 01.984 1.179l-1.272 7a1 1 0 01-.984.821H3.273a1 1 0 01-.984-.821l-1.273-7z" stroke="#111"/><path d="M7.5 1C5.567 1 4 2.433 4 4.2V5h7v-.8C11 2.433 9.433 1 7.5 1z" stroke="#111"/></symbol><symbol fill="none" viewBox="0 0 21 21" id="icon-close" xmlns="http://www.w3.org/2000/svg"><path d="M1 1l19 19m0-19L1 20" stroke="#111"/></symbol><symbol fill="none" viewBox="0 0 22 17" id="icon-compare" xmlns="http://www.w3.org/2000/svg"><path d="M5.072 1.362L16 6m-3.552 5.913l3.494-5.618 3.493 5.618h-6.987zm7.478.464c0 2.001-1.784 3.623-3.985 3.623-2.202 0-3.986-1.622-3.986-3.623M1.58 7.565l3.492-5.618 3.494 5.618H1.579zm7.479.465c0 2-1.784 3.622-3.986 3.622-2.2 0-3.985-1.622-3.985-3.623" stroke="#111"/></symbol><symbol fill="none" viewBox="0 0 34 25" id="icon-delivery" xmlns="http://www.w3.org/2000/svg"><path d="M7.897 17.117c-1.867 0-3.385 1.618-3.385 3.607 0 1.99 1.518 3.607 3.385 3.607 1.866 0 3.384-1.617 3.384-3.607 0-1.99-1.518-3.607-3.384-3.607zm0 6.012c-1.245 0-2.257-1.079-2.257-2.405 0-1.326 1.012-2.404 2.257-2.404 1.244 0 2.256 1.078 2.256 2.404 0 1.326-1.012 2.405-2.256 2.405zm19.179-6.012c-1.867 0-3.385 1.618-3.385 3.607 0 1.99 1.518 3.607 3.385 3.607 1.866 0 3.384-1.617 3.384-3.607 0-1.99-1.518-3.607-3.384-3.607zm0 6.012c-1.245 0-2.257-1.079-2.257-2.405 0-1.326 1.012-2.404 2.257-2.404 1.244 0 2.256 1.078 2.256 2.404 0 1.326-1.012 2.405-2.256 2.405z" fill="#F7F7F7"/><path d="M33.756 13.788L28.68 5.372a.557.557 0 00-.474-.276H22c-.312 0-.564.269-.564.6v15.03c0 .332.252.601.564.601h2.256v-1.202h-1.692V6.298h5.333l4.82 7.992v5.835h-2.82v1.202h3.385c.312 0 .564-.269.564-.6v-6.614a.63.63 0 00-.09-.325z" fill="#F7F7F7"/><path d="M24.82 12.91V8.703h4.513V7.5h-5.076c-.313 0-.565.27-.565.601v5.41c0 .333.253.602.564.602h8.462V12.91h-7.897zM22 .887H.564c-.311 0-.564.269-.564.6v19.238c0 .333.253.601.564.601h4.513v-1.202H1.128V2.089h20.308v18.035H10.718v1.202H22c.312 0 .564-.268.564-.6V1.487c0-.332-.252-.601-.564-.601zm11.282 16.832h-2.257v1.202h2.257V17.72z" fill="#F7F7F7"/></symbol><symbol fill="none" viewBox="0 0 31 22" id="icon-delivery-gray" xmlns="http://www.w3.org/2000/svg"><path d="M7.198 14.795c-1.702 0-3.085 1.475-3.085 3.288 0 1.813 1.383 3.288 3.085 3.288 1.701 0 3.085-1.475 3.085-3.288 0-1.813-1.384-3.288-3.085-3.288zm0 5.48c-1.134 0-2.057-.983-2.057-2.192 0-1.21.923-2.192 2.057-2.192s2.057.983 2.057 2.192-.923 2.192-2.057 2.192zm17.482-5.48c-1.702 0-3.086 1.475-3.086 3.288 0 1.813 1.384 3.288 3.085 3.288 1.702 0 3.085-1.475 3.085-3.288 0-1.813-1.383-3.288-3.085-3.288zm0 5.48c-1.135 0-2.058-.983-2.058-2.192 0-1.21.923-2.192 2.057-2.192 1.135 0 2.057.983 2.057 2.192s-.922 2.192-2.057 2.192z" fill="#B6B6B6"/><path d="M30.768 11.759L26.14 4.087a.507.507 0 00-.432-.251h-5.656c-.285 0-.514.245-.514.548v13.699c0 .303.23.548.514.548h2.057v-1.096h-1.543V4.932h4.861l4.394 7.284v5.319h-2.57v1.096h3.084c.285 0 .515-.245.515-.548v-6.028a.573.573 0 00-.082-.296z" fill="#B6B6B6"/><path d="M22.623 10.959V7.123h4.114V6.027h-4.628c-.284 0-.514.246-.514.548v4.932c0 .303.23.548.514.548h7.713v-1.096h-7.199zM20.053 0H.514C.23 0 0 .245 0 .548v17.535c0 .303.23.548.514.548h4.114v-1.096h-3.6V1.095h18.51v16.44H9.77v1.096h10.284c.284 0 .514-.245.514-.548V.548c0-.303-.23-.548-.514-.548zm10.283 15.344h-2.057v1.096h2.057v-1.096z" fill="#B6B6B6"/></symbol><symbol fill="none" viewBox="0 0 22 13" id="icon-menu" xmlns="http://www.w3.org/2000/svg"><path stroke="#111" d="M0 .5h22m-22 6h22m-22 6h22"/></symbol><symbol fill="none" viewBox="0 0 20 25" id="icon-pdf" xmlns="http://www.w3.org/2000/svg"><path d="M4.953 15.806c0-.408-.283-.652-.783-.652-.204 0-.342.02-.414.04v1.309c.085.019.19.025.336.025.532 0 .86-.269.86-.722zm3.093-.638c-.224 0-.369.02-.454.04v2.899c.085.02.223.02.348.02.908.006 1.5-.493 1.5-1.552.006-.92-.533-1.406-1.394-1.406z" fill="#111"/><path d="M13.79 0H3.924a2.618 2.618 0 00-2.615 2.615v9.668h-.255c-.582 0-1.054.471-1.054 1.053v6.39c0 .582.472 1.054 1.054 1.054h.255v1.171a2.617 2.617 0 002.615 2.615h13.462A2.617 2.617 0 0020 21.95V6.188L13.79 0zM2.764 14.49a8.256 8.256 0 011.354-.092c.618 0 1.059.118 1.355.355.282.223.473.592.473 1.025 0 .434-.145.803-.408 1.052-.342.323-.848.467-1.44.467-.131 0-.25-.006-.341-.02v1.585h-.993V14.49zm14.622 8.475H3.924A1.014 1.014 0 012.91 21.95v-1.17h12.55c.582 0 1.054-.472 1.054-1.054v-6.39c0-.582-.472-1.053-1.054-1.053H2.91V2.615c0-.558.454-1.012 1.013-1.012l9.267-.01V5.02c0 1 .812 1.813 1.813 1.813l3.356-.01.038 15.13c0 .558-.454 1.013-1.012 1.013zm-10.8-4.123V14.49a9.024 9.024 0 011.354-.092c.842 0 1.387.151 1.815.473.46.342.75.887.75 1.67 0 .848-.31 1.434-.737 1.795-.467.388-1.177.572-2.045.572-.52 0-.887-.033-1.137-.066zm7.175-2.577v.815h-1.59v1.782h-1.007v-4.431h2.709v.822H12.17v1.012h1.591z" fill="#111"/><path d="M14.735 3.055l2.293 2.293a2.293 2.293 0 01-2.293-2.293zM.724 11.517h3.057v.764H.724zm0 9.27h3.057v.764H.724z" fill="#fff"/></symbol><symbol fill="none" viewBox="0 0 19 29" id="icon-pin" xmlns="http://www.w3.org/2000/svg"><path d="M9.5.887C4.262.887 0 5.428 0 11.01c0 1.838.773 3.814.806 3.898.25.631.742 1.613 1.098 2.188l6.514 10.518c.266.431.66.678 1.082.678.421 0 .816-.247 1.082-.677l6.515-10.519a16.69 16.69 0 001.098-2.188c.032-.083.805-2.06.805-3.898C19 5.428 14.738.887 9.5.887zm7.664 13.56a15.358 15.358 0 01-1 1.995L9.648 26.96c-.128.208-.17.208-.298 0L2.837 16.442a15.32 15.32 0 01-1-1.996c-.01-.024-.72-1.844-.72-3.435 0-4.926 3.761-8.933 8.383-8.933 4.622 0 8.382 4.007 8.382 8.933 0 1.594-.71 3.418-.718 3.436z" fill="#fff"/><path d="M9.5 5.652c-2.773 0-5.03 2.405-5.03 5.36 0 2.955 2.257 5.36 5.03 5.36 2.774 0 5.03-2.405 5.03-5.36 0-2.955-2.256-5.36-5.03-5.36zm0 9.529c-2.156 0-3.912-1.87-3.912-4.169 0-2.299 1.756-4.169 3.912-4.169 2.157 0 3.912 1.87 3.912 4.17 0 2.298-1.755 4.168-3.912 4.168z" fill="#fff"/></symbol><symbol fill="none" viewBox="0 0 19 28" id="icon-pin-gray" xmlns="http://www.w3.org/2000/svg"><path d="M9.5 0C4.262 0 0 4.542 0 10.124c0 1.838.773 3.815.806 3.898.25.632.742 1.613 1.098 2.189l6.514 10.517c.266.431.66.679 1.082.679.421 0 .816-.247 1.082-.678l6.515-10.518c.356-.576.848-1.557 1.098-2.189.032-.083.805-2.06.805-3.898C19 4.542 14.738 0 9.5 0zm7.664 13.56c-.223.566-.681 1.48-1 1.995L9.648 26.073c-.128.208-.17.208-.298 0L2.837 15.555a15.32 15.32 0 01-1-1.996c-.01-.024-.72-1.844-.72-3.435 0-4.926 3.761-8.933 8.383-8.933 4.622 0 8.382 4.007 8.382 8.933 0 1.594-.71 3.418-.718 3.436z" fill="#B6B6B6"/><path d="M9.5 4.766c-2.773 0-5.03 2.404-5.03 5.36 0 2.955 2.257 5.36 5.03 5.36 2.774 0 5.03-2.405 5.03-5.36 0-2.956-2.256-5.36-5.03-5.36zm0 9.528c-2.156 0-3.912-1.87-3.912-4.168 0-2.3 1.756-4.17 3.912-4.17 2.157 0 3.912 1.87 3.912 4.17 0 2.298-1.755 4.168-3.912 4.168z" fill="#B6B6B6"/></symbol><symbol fill="none" viewBox="0 0 12 13" id="icon-search" xmlns="http://www.w3.org/2000/svg"><circle cx="5" cy="5" r="4.5" stroke="#111"/><path d="M8 8.5l3.5 3.5" stroke="#111" stroke-linecap="round" stroke-linejoin="round"/></symbol><symbol fill="none" viewBox="0 0 23 29" id="icon-sert" xmlns="http://www.w3.org/2000/svg"><path d="M22.442 23.944l-3.8-7.114c.385-.192.616-.63.59-1.122l-.282-2.517 1.618-1.806c.36-.383.385-1.04.025-1.505l-1.617-1.86.334-2.545c.051-.547-.308-1.095-.822-1.204l-2.336-.493-1.13-2.216c-.23-.52-.796-.739-1.31-.52h-.025L11.531 2.11 9.425 1.015a.949.949 0 00-.77-.082 1.03 1.03 0 00-.59.52L6.908 3.669l-2.336.438c-.54.11-.899.63-.847 1.231l.282 2.517L2.39 9.661c-.359.383-.385 1.04-.025 1.505l1.617 1.86-.333 2.545c-.052.493.23.958.667 1.15L.491 23.943c-.103.164-.077.383 0 .547.102.164.256.273.436.273h4.108l1.874 3.475c.103.164.257.274.437.274s.359-.11.436-.274l3.671-6.676 3.672 6.758c.103.164.257.274.436.274.18 0 .36-.11.437-.274l1.874-3.557h4.108c.18 0 .36-.11.436-.273a.477.477 0 00.026-.547zM7.372 26.87l-1.593-2.927c-.102-.165-.256-.274-.436-.274H1.8l3.543-6.676 1.463.273 1.13 2.217a.985.985 0 001.31.52h.025l1.053-.52.513.957-3.466 6.43zm1.488-7.85h-.025l-1.13-2.271c-.154-.274-.41-.493-.719-.52l-2.362-.466.334-2.517c.051-.328-.051-.684-.257-.903l-1.592-1.86 1.618-1.806a1.07 1.07 0 00.282-.903l-.282-2.49s0-.027.026-.054l2.336-.438c.282-.055.565-.246.719-.547l1.155-2.217 2.105 1.095a.929.929 0 00.925 0l2.13-1.04h.026l1.13 2.271c.154.274.41.493.693.52l2.336.492-.333 2.518c-.052.328.051.684.256.902l1.618 1.861-1.643 1.806a1.07 1.07 0 00-.283.903l.283 2.517-2.31.41a1.044 1.044 0 00-.72.548l-1.155 2.216-2.105-1.095a.93.93 0 00-.925 0l-2.13 1.067zm8.73 4.65c-.18 0-.36.11-.437.274l-1.592 3.01-3.62-6.676a.45.45 0 00-.102-.191l-.565-1.067.18-.083 2.105 1.095c.154.082.308.11.462.11a1 1 0 00.898-.548l1.156-2.216 1.54-.301 3.518 6.594H17.59z" fill="#fff"/><path d="M16.588 10.537c0-3.01-2.31-5.473-5.135-5.473-2.824 0-5.134 2.463-5.134 5.473s2.31 5.472 5.134 5.472c2.825 0 5.135-2.463 5.135-5.472zm-5.135 4.377c-2.259 0-4.107-1.97-4.107-4.377 0-2.408 1.848-4.378 4.107-4.378 2.26 0 4.108 1.97 4.108 4.378 0 2.407-1.848 4.377-4.108 4.377z" fill="#fff"/></symbol><symbol fill="none" viewBox="0 0 23 28" id="icon-sert-gray" xmlns="http://www.w3.org/2000/svg"><path d="M22.02 23.057l-3.8-7.114c.385-.192.616-.63.59-1.122l-.282-2.517 1.617-1.806c.36-.383.385-1.04.026-1.505l-1.618-1.86.334-2.545c.051-.547-.308-1.094-.822-1.204l-2.336-.492-1.13-2.217a.985.985 0 00-1.309-.52h-.026l-2.156 1.068L9.002.128a.949.949 0 00-.77-.082 1.03 1.03 0 00-.59.52L6.486 2.782 4.15 3.22c-.54.11-.899.63-.847 1.231l.282 2.518-1.617 1.805c-.36.383-.385 1.04-.026 1.505l1.617 1.86-.333 2.545c-.052.493.23.958.667 1.15L.068 23.056c-.103.164-.077.383 0 .547.102.164.256.274.436.274h4.108l1.874 3.474c.103.165.257.274.437.274s.36-.11.436-.274l3.672-6.676 3.671 6.759c.103.164.257.273.437.273s.359-.11.436-.273l1.874-3.557h4.108c.18 0 .36-.11.437-.274a.477.477 0 00.025-.547zM6.947 25.984l-1.591-2.927c-.103-.164-.257-.274-.437-.274H1.377l3.543-6.676 1.464.274 1.13 2.216a.985.985 0 001.309.52h.025l1.053-.52.513.958-3.466 6.43zm1.49-7.852h-.026l-1.13-2.271c-.154-.274-.41-.493-.719-.52L4.2 14.876l.334-2.517c.051-.329-.051-.684-.257-.903l-1.591-1.86 1.617-1.807a1.07 1.07 0 00.282-.903l-.282-2.49s0-.027.026-.054l2.336-.438c.282-.055.565-.246.719-.547L8.54 1.14l2.106 1.094a.929.929 0 00.924 0l2.13-1.04h.026l1.13 2.271c.154.274.41.493.693.52l2.337.493-.334 2.517c-.052.328.051.684.257.903l1.617 1.86-1.643 1.806a1.07 1.07 0 00-.283.903l.283 2.517-2.31.41a1.044 1.044 0 00-.72.548l-1.155 2.216-2.105-1.094a.929.929 0 00-.925 0l-2.13 1.067zm8.729 4.651c-.18 0-.36.11-.437.274l-1.591 3.01-3.62-6.677a.447.447 0 00-.103-.191l-.565-1.067.18-.082 2.105 1.094c.154.082.308.11.462.11.36 0 .719-.192.899-.548l1.155-2.216 1.54-.3 3.518 6.593h-3.543z" fill="#B6B6B6"/><path d="M16.165 9.65c0-3.01-2.31-5.472-5.134-5.472-2.825 0-5.135 2.462-5.135 5.472 0 3.01 2.31 5.472 5.135 5.472 2.824 0 5.134-2.462 5.134-5.472zm-5.134 4.378c-2.26 0-4.108-1.97-4.108-4.378 0-2.408 1.848-4.378 4.108-4.378 2.259 0 4.107 1.97 4.107 4.378 0 2.408-1.848 4.378-4.107 4.378z" fill="#B6B6B6"/></symbol><symbol fill="none" viewBox="0 0 29 27" id="icon-star" xmlns="http://www.w3.org/2000/svg"><path d="M14.024 1.082a.5.5 0 01.952 0l2.528 7.783A1.5 1.5 0 0018.931 9.9h8.184a.5.5 0 01.294.905l-6.621 4.81a1.5 1.5 0 00-.545 1.677l2.529 7.783a.5.5 0 01-.77.56l-6.62-4.811a1.5 1.5 0 00-1.764 0l-6.62 4.81a.5.5 0 01-.77-.559l2.529-7.783a1.5 1.5 0 00-.545-1.677l-6.62-4.81a.5.5 0 01.293-.905h8.184a1.5 1.5 0 001.427-1.036l2.528-7.783z" stroke="#fff"/></symbol><symbol fill="none" viewBox="0 0 26 24" id="icon-star-gray" xmlns="http://www.w3.org/2000/svg"><path d="M13.476 1.082l2.192 6.746a1.5 1.5 0 001.426 1.037h7.094a.5.5 0 01.294.904l-5.739 4.17a1.5 1.5 0 00-.545 1.677l2.192 6.747a.5.5 0 01-.77.559l-5.738-4.17a1.5 1.5 0 00-1.764 0l-5.739 4.17a.5.5 0 01-.77-.56l2.193-6.746a1.5 1.5 0 00-.545-1.677l-5.74-4.17a.5.5 0 01.295-.904h7.094a1.5 1.5 0 001.426-1.037l2.192-6.746a.5.5 0 01.952 0z" stroke="#B6B6B6"/></symbol><symbol fill="none" viewBox="0 0 14 14" id="icon-user" xmlns="http://www.w3.org/2000/svg"><circle cx="7" cy="3" r="2.5" stroke="#111"/><path d="M13 13a6 6 0 00-12 0" stroke="#111" stroke-linecap="round"/></symbol><symbol fill="none" viewBox="0 0 18 12" id="rus" xmlns="http://www.w3.org/2000/svg"><path fill="#fff" d="M0 0h18v4H0z"/><path fill="#DA2C24" d="M0 8h18v4H0z"/><path fill="#0036A3" d="M0 4h18v4H0z"/></symbol><symbol fill="none" viewBox="0 0 7 14" id="social-fb" xmlns="http://www.w3.org/2000/svg"><path d="M5.722 2.325H7V.099A16.5 16.5 0 005.138 0C3.296 0 2.033 1.16 2.033 3.29v1.96H0v2.489h2.033V14h2.493V7.74h1.951l.31-2.49H4.526V3.537c0-.72.194-1.211 1.196-1.211z" fill="#fff"/></symbol><symbol fill="none" viewBox="0 0 16 16" id="social-inst" xmlns="http://www.w3.org/2000/svg"><rect width="16" height="16" rx="4" fill="#fff"/><path d="M8 4a4.001 4.001 0 000 8 4 4 0 000-8zm0 6.595a2.595 2.595 0 110-5.19 2.595 2.595 0 010 5.19z" fill="#1C1C1C"/><circle cx="13" cy="3" r="1" fill="#1C1C1C"/></symbol><symbol fill="none" viewBox="0 0 16 10" id="social-vk" xmlns="http://www.w3.org/2000/svg"><path d="M13.277 5.734c-.258-.35-.184-.505 0-.818.004-.004 2.139-3.165 2.359-4.237l.001-.001c.11-.39 0-.678-.529-.678H13.36c-.445 0-.65.246-.76.522 0 0-.891 2.284-2.151 3.765-.407.428-.595.565-.817.565-.11 0-.28-.137-.28-.528V.678C9.352.209 9.228 0 8.859 0h-2.75a.431.431 0 00-.446.422c0 .444.63.547.696 1.797V4.93c0 .594-.101.703-.324.703-.595 0-2.039-2.293-2.894-4.918C2.967.206 2.8 0 2.35 0H.6C.1 0 0 .247 0 .523c0 .487.595 2.91 2.765 6.11C4.212 8.815 6.25 10 8.103 10c1.114 0 1.25-.263 1.25-.715 0-2.087-.1-2.284.457-2.284.259 0 .704.137 1.744 1.19 1.19 1.25 1.384 1.809 2.05 1.809h1.75c.498 0 .75-.263.605-.781-.332-1.091-2.58-3.335-2.682-3.485z" fill="#fff"/></symbol><symbol fill="none" viewBox="0 0 18 18" id="web" xmlns="http://www.w3.org/2000/svg"><path d="M15.364 2.636A8.941 8.941 0 009 0a8.941 8.941 0 00-6.364 2.636A8.941 8.941 0 000 9a8.94 8.94 0 002.636 6.364A8.941 8.941 0 009 18a8.941 8.941 0 006.364-2.636A8.941 8.941 0 0018 9a8.941 8.941 0 00-2.636-6.364zm-.075 11.098a11.223 11.223 0 00-1.686-.942c.258-1.006.411-2.098.45-3.23h2.802a7.833 7.833 0 01-1.566 4.172zM1.145 9.563h2.802c.039 1.13.192 2.223.45 3.23-.584.262-1.148.577-1.686.941a7.832 7.832 0 01-1.566-4.171zm1.566-5.297c.538.364 1.101.68 1.686.942a15.124 15.124 0 00-.45 3.23H1.145a7.832 7.832 0 011.566-4.172zm9.967-1.497a7.6 7.6 0 00-.665-1.045c.951.396 1.81.973 2.53 1.688-.409.268-.833.505-1.271.71a10.1 10.1 0 00-.594-1.353zm-.456 1.772c-1.027.344-2.11.521-3.222.521s-2.196-.177-3.222-.52C6.497 2.492 7.686 1.124 9 1.124c1.315 0 2.503 1.368 3.223 3.416zM5.074 8.437a14.07 14.07 0 01.385-2.816c1.13.374 2.32.566 3.542.566 1.221 0 2.413-.192 3.542-.566.213.868.348 1.82.385 2.816H5.073zm7.854 1.126a14.097 14.097 0 01-.385 2.816A11.241 11.241 0 009 11.813a11.25 11.25 0 00-3.542.566 14.1 14.1 0 01-.385-2.816h7.854zM5.322 2.769c-.224.42-.422.872-.594 1.352a10.084 10.084 0 01-1.271-.71 7.9 7.9 0 012.53-1.687c-.236.31-.46.659-.665 1.045zm-.594 11.11c.172.48.37.933.594 1.352a7.6 7.6 0 00.665 1.045 7.901 7.901 0 01-2.53-1.688 10.1 10.1 0 011.271-.71zm1.05-.42A10.117 10.117 0 019 12.938c1.112 0 2.195.177 3.222.521-.719 2.048-1.908 3.416-3.222 3.416s-2.503-1.368-3.222-3.416zm6.9 1.772c.224-.42.422-.872.594-1.352.438.204.862.44 1.27.71a7.9 7.9 0 01-2.53 1.687c.237-.31.46-.659.666-1.045zm1.375-6.793a15.132 15.132 0 00-.45-3.23 11.215 11.215 0 001.686-.942 7.832 7.832 0 011.566 4.171h-2.802z" fill="#878787"/></symbol></svg>