<svg width="19" height="28" viewBox="0 0 19 28" xmlns="http://www.w3.org/2000/svg">
<path d="M9.5 0C4.26159 0 0 4.54158 0 10.1242C0 11.962 0.773412 13.9386 0.805824 14.022C1.05562 14.6538 1.5485 15.6353 1.90391 16.2106L8.41756 26.7284C8.68412 27.1595 9.07865 27.4067 9.5 27.4067C9.92135 27.4067 10.3159 27.1595 10.5824 26.729L17.0966 16.2106C17.4526 15.6353 17.9449 14.6538 18.1947 14.022C18.2271 13.9392 19 11.9626 19 10.1242C19 4.54158 14.7384 0 9.5 0ZM17.1643 13.5598C16.9413 14.1262 16.4825 15.0391 16.1634 15.5549L9.64921 26.0733C9.52068 26.2811 9.47988 26.2811 9.35135 26.0733L2.83715 15.5549C2.51806 15.0391 2.05926 14.1256 1.83629 13.5592C1.82679 13.5348 1.11765 11.7154 1.11765 10.1242C1.11765 5.19845 4.87797 1.19108 9.5 1.19108C14.122 1.19108 17.8824 5.19845 17.8824 10.1242C17.8824 11.7178 17.1715 13.5419 17.1643 13.5598Z"/>
<path d="M9.50009 4.76562C6.72666 4.76562 4.4707 7.1704 4.4707 10.1255C4.4707 13.0805 6.72666 15.4853 9.50009 15.4853C12.2735 15.4853 14.5295 13.0805 14.5295 10.1255C14.5295 7.1704 12.2735 4.76562 9.50009 4.76562ZM9.50009 14.2942C7.3436 14.2942 5.58835 12.4242 5.58835 10.1255C5.58835 7.82668 7.3436 5.9567 9.50009 5.9567C11.6566 5.9567 13.4118 7.82668 13.4118 10.1255C13.4118 12.4242 11.6566 14.2942 9.50009 14.2942Z"/>
</svg>