<svg width="23" height="28" viewBox="0 0 23 28" xmlns="http://www.w3.org/2000/svg">
<path d="M22.0192 23.0568L18.2194 15.9429C18.6045 15.7514 18.8356 15.3136 18.8099 14.8211L18.5275 12.3039L20.145 10.4981C20.5044 10.115 20.5301 9.45835 20.1706 8.99321L18.5532 7.13267L18.8869 4.5881C18.9383 4.04088 18.5788 3.49366 18.0654 3.38421L15.729 2.89171L14.5993 0.675474C14.3683 0.155616 13.8034 -0.0632723 13.29 0.155616H13.2643L11.1076 1.22269L9.00236 0.128255C8.77129 -0.00855031 8.48888 -0.0359113 8.23213 0.0461717C7.97539 0.128255 7.77 0.319782 7.64163 0.56603L6.48629 2.78227L4.14993 3.22005C3.61078 3.32949 3.25134 3.84935 3.30269 4.45129L3.5851 6.9685L1.96763 8.77433C1.60819 9.15738 1.58251 9.81404 1.94195 10.2792L3.55943 12.1397L3.22566 14.6843C3.17431 15.1768 3.45673 15.6419 3.89319 15.8335L0.0677352 23.0568C-0.0349616 23.2209 -0.00928741 23.4398 0.0677352 23.604C0.170432 23.7681 0.324477 23.8776 0.504197 23.8776H4.61207L6.48629 27.3524C6.58898 27.5166 6.74303 27.626 6.92275 27.626C7.10247 27.626 7.28219 27.5166 7.35921 27.3524L11.0306 20.6764L14.702 27.4345C14.8047 27.5987 14.9588 27.7081 15.1385 27.7081C15.3182 27.7081 15.4979 27.5987 15.575 27.4345L17.4492 23.8776H21.557C21.7368 23.8776 21.9165 23.7681 21.9935 23.604C22.1219 23.4398 22.1219 23.2209 22.0192 23.0568ZM6.94842 25.9844L5.35662 23.0568C5.25392 22.8926 5.09988 22.7832 4.92016 22.7832H1.37712L4.92016 16.1071L6.38359 16.3807L7.51326 18.5969C7.74432 19.1168 8.30916 19.3357 8.82264 19.1168H8.84831L9.90096 18.5969L10.4144 19.5546L6.94842 25.9844ZM8.43753 18.1318C8.41185 18.1318 8.41185 18.1318 8.41185 18.1318L7.28219 15.8608C7.12814 15.5872 6.8714 15.3683 6.56331 15.341L4.20128 14.8758L4.53505 12.3586C4.5864 12.0303 4.4837 11.6746 4.27831 11.4557L2.6865 9.59516L4.30398 7.78933C4.53505 7.54308 4.63774 7.21475 4.5864 6.88642L4.30398 4.39657C4.30398 4.39657 4.30398 4.36921 4.32965 4.34185L6.66601 3.90407C6.94842 3.84935 7.23084 3.65782 7.38488 3.35685L8.54022 1.14061L10.6455 2.23505C10.9279 2.39922 11.2874 2.39922 11.5698 2.23505L13.7007 1.19533C13.7264 1.19533 13.7264 1.19533 13.7264 1.19533L14.8561 3.4663C15.0101 3.7399 15.2669 3.95879 15.5493 3.98615L17.8856 4.47865L17.5519 6.99586C17.5005 7.32419 17.6032 7.67989 17.8086 7.89878L19.4261 9.75932L17.7829 11.5651C17.5519 11.8114 17.4492 12.1397 17.5005 12.4681L17.7829 14.9853L15.4723 15.3957C15.1898 15.4504 14.9074 15.6419 14.7534 15.9429L13.598 18.1591L11.4928 17.0647C11.2103 16.9005 10.8509 16.9005 10.5685 17.0647L8.43753 18.1318ZM17.1668 22.7832C16.987 22.7832 16.8073 22.8926 16.7303 23.0568L15.1385 26.0665L11.5184 19.3904C11.4928 19.3083 11.4671 19.2536 11.4157 19.1989L10.8509 18.1318L11.0306 18.0497L13.1359 19.1441C13.29 19.2262 13.444 19.2536 13.598 19.2536C13.9575 19.2536 14.3169 19.0621 14.4966 18.7064L15.652 16.4901L17.1924 16.1892L20.7098 22.7832H17.1668Z" />
<path d="M16.1654 9.64993C16.1654 6.64022 13.8547 4.17773 11.0306 4.17773C8.20642 4.17773 5.89575 6.64022 5.89575 9.64993C5.89575 12.6596 8.20642 15.1221 11.0306 15.1221C13.8547 15.1221 16.1654 12.6596 16.1654 9.64993ZM11.0306 14.0277C8.77125 14.0277 6.92272 12.0577 6.92272 9.64993C6.92272 7.24217 8.77125 5.27217 11.0306 5.27217C13.2899 5.27217 15.1384 7.24217 15.1384 9.64993C15.1384 12.0577 13.2899 14.0277 11.0306 14.0277Z" />
</svg>
