<svg width="31" height="22" viewBox="0 0 31 22" xmlns="http://www.w3.org/2000/svg">
<path d="M7.19787 14.7949C5.49644 14.7949 4.11279 16.2695 4.11279 18.0827C4.11279 19.8959 5.49644 21.3705 7.19787 21.3705C8.89931 21.3705 10.283 19.8959 10.283 18.0827C10.283 16.2695 8.89925 14.7949 7.19787 14.7949ZM7.19787 20.2745C6.06356 20.2745 5.14117 19.2915 5.14117 18.0827C5.14117 16.8739 6.06362 15.8909 7.19787 15.8909C8.33212 15.8909 9.25457 16.8739 9.25457 18.0827C9.25457 19.2915 8.33212 20.2745 7.19787 20.2745Z"/>
<path d="M24.6792 14.7949C22.9778 14.7949 21.5941 16.2695 21.5941 18.0827C21.5941 19.8959 22.9778 21.3705 24.6792 21.3705C26.3806 21.3705 27.7643 19.8959 27.7643 18.0827C27.7643 16.2695 26.3806 14.7949 24.6792 14.7949ZM24.6792 20.2745C23.5449 20.2745 22.6225 19.2915 22.6225 18.0827C22.6225 16.8739 23.5449 15.8909 24.6792 15.8909C25.8135 15.8909 26.7359 16.8739 26.7359 18.0827C26.7359 19.2915 25.8135 20.2745 24.6792 20.2745Z"/>
<path d="M30.7678 11.7589L26.1402 4.08746C26.0456 3.93072 25.8827 3.83594 25.7078 3.83594H20.0519C19.7675 3.83594 19.5377 4.08143 19.5377 4.38388V18.0829C19.5377 18.3859 19.7675 18.6308 20.0519 18.6308H22.1086V17.5348H20.566V4.93188H25.4271L29.8212 12.2164V17.535H27.2503V18.6309H30.3354C30.6197 18.6309 30.8496 18.3859 30.8496 18.0829V12.0553C30.8496 11.9507 30.8214 11.8471 30.7678 11.7589Z"/>
<path d="M22.6234 10.9589V7.12328H26.7369V6.02734H22.1093C21.8249 6.02734 21.5951 6.27283 21.5951 6.57528V11.5069C21.5951 11.8099 21.8249 12.0548 22.1093 12.0548H29.822V10.9589H22.6234V10.9589Z"/>
<path d="M20.053 0H0.514159C0.230356 0 0 0.24549 0 0.547938V18.0827C0 18.3857 0.230356 18.6306 0.514159 18.6306H4.62761V17.5347H1.02838V1.09588H19.5388V17.5347H9.76938V18.6306H20.053C20.3373 18.6306 20.5671 18.3857 20.5671 18.0827V0.547938C20.5671 0.24549 20.3373 0 20.053 0Z"/>
<path d="M30.3356 15.3438H28.2789V16.4397H30.3356V15.3438Z"/>
</svg>
