<svg width="40" height="40" viewBox="0 0 40 40" fill="none" xmlns="http://www.w3.org/2000/svg">
<circle cx="20" cy="20" r="20" fill="#4A6C8F"/>
<path d="M25.2771 20.7343C25.0185 20.3843 25.0925 20.2286 25.2771 19.9157C25.2805 19.9121 27.4159 16.7507 27.6359 15.6786L27.6372 15.6779C27.7465 15.2871 27.6372 15 27.1085 15H25.3591C24.9138 15 24.7084 15.2464 24.5984 15.5221C24.5984 15.5221 23.7077 17.8064 22.4477 19.2871C22.041 19.715 21.853 19.8521 21.631 19.8521C21.5217 19.8521 21.3517 19.715 21.3517 19.3243V15.6779C21.3517 15.2093 21.227 15 20.8583 15H18.1075C17.8282 15 17.6622 15.2186 17.6622 15.4221C17.6622 15.8664 18.2922 15.9686 18.3576 17.2186V19.9307C18.3576 20.525 18.2569 20.6343 18.0335 20.6343C17.4389 20.6343 15.9955 18.3407 15.1401 15.7157C14.9674 15.2064 14.7988 15.0007 14.3501 15.0007H12.6C12.1007 15.0007 12 15.2471 12 15.5229C12 16.01 12.5947 18.4321 14.7654 21.6321C16.2121 23.8164 18.2495 25 20.1029 25C21.217 25 21.353 24.7371 21.353 24.285C21.353 22.1979 21.2523 22.0007 21.8103 22.0007C22.069 22.0007 22.5144 22.1379 23.5544 23.1914C24.7431 24.4407 24.9384 25 25.6038 25H27.3532C27.8519 25 28.1046 24.7371 27.9592 24.2186C27.6265 23.1279 25.3785 20.8843 25.2771 20.7343Z" fill="white"/>
</svg>
