<svg width="16" height="16" viewBox="0 0 16 16" fill="none" xmlns="http://www.w3.org/2000/svg">
<rect width="16" height="16" rx="4" fill="white"/>
<path d="M8 4C5.79171 4 4 5.79159 4 8C4 10.2084 5.79171 12 8 12C10.2084 12 12 10.2084 12 8C12 5.79159 10.2084 4 8 4ZM8 10.5947C6.56737 10.5947 5.4053 9.43275 5.4053 8C5.4053 6.56725 6.56737 5.4053 8 5.4053C9.43275 5.4053 10.5947 6.56725 10.5947 8C10.5947 9.43275 9.43275 10.5947 8 10.5947Z" fill="#1C1C1C"/>
<circle cx="13" cy="3" r="1" fill="#1C1C1C"/>
</svg>
