<svg width="16" height="10" viewBox="0 0 16 10" fill="none" xmlns="http://www.w3.org/2000/svg">
<path d="M13.2771 5.73429C13.0185 5.38429 13.0925 5.22857 13.2771 4.91571C13.2805 4.91214 15.4159 1.75071 15.6359 0.678571L15.6372 0.677857C15.7465 0.287143 15.6372 0 15.1085 0H13.3591C12.9138 0 12.7084 0.246429 12.5984 0.522143C12.5984 0.522143 11.7077 2.80643 10.4477 4.28714C10.041 4.715 9.85301 4.85214 9.631 4.85214C9.52166 4.85214 9.35166 4.715 9.35166 4.32429V0.677857C9.35166 0.209286 9.22699 0 8.85831 0H6.10754C5.8282 0 5.6622 0.218571 5.6622 0.422143C5.6622 0.866429 6.29222 0.968571 6.35755 2.21857V4.93071C6.35755 5.525 6.25688 5.63429 6.03354 5.63429C5.43886 5.63429 3.99547 3.34071 3.14011 0.715714C2.96744 0.206428 2.79876 0.000714234 2.35008 0.000714234H0.600021C0.10067 0.000714234 0 0.247143 0 0.522857C0 1.01 0.594687 3.43214 2.76543 6.63214C4.21215 8.81643 6.24955 10 8.10295 10C9.21699 10 9.35299 9.73714 9.35299 9.285C9.35299 7.19786 9.25232 7.00071 9.81034 7.00071C10.069 7.00071 10.5144 7.13786 11.5544 8.19143C12.7431 9.44071 12.9384 10 13.6038 10H15.3532C15.8519 10 16.1046 9.73714 15.9592 9.21857C15.6265 8.12786 13.3785 5.88429 13.2771 5.73429Z" fill="white"/>
</svg>
