<svg width="640" height="455" viewBox="0 0 640 455" fill="none" xmlns="http://www.w3.org/2000/svg">
<rect width="640" height="455" fill="#F8F8F8"/>
<path d="M64 359.015L97.8843 133.12L142.593 106.295L478.612 359.015H64Z" fill="url(#paint0_linear)"/>
<path d="M96.7354 133.736L143.529 105.62L149.6 115.724C151.023 118.091 150.257 121.163 147.89 122.585L109.668 145.551C107.301 146.973 104.229 146.207 102.807 143.84L96.7354 133.736Z" fill="#E84908"/>
<rect x="93.0989" y="123.801" width="50.5914" height="25.1781" rx="3" transform="rotate(-31 93.0989 123.801)" stroke="black" stroke-width="4"/>
<path d="M576.5 359.015L542.616 133.12L497.907 106.295L161.888 359.015H576.5Z" fill="url(#paint1_linear)"/>
<path d="M543.765 133.736L496.971 105.62L490.9 115.724C489.477 118.091 490.243 121.163 492.61 122.585L530.832 145.551C533.199 146.973 536.271 146.207 537.693 143.84L543.765 133.736Z" fill="#E84908"/>
<rect x="-2.74441" y="0.684258" width="50.5914" height="25.1781" rx="3" transform="matrix(-0.857167 -0.515038 -0.515038 0.857167 545.401 121.801)" stroke="black" stroke-width="4"/>
<path d="M403.785 235.714L403.314 250.774C401.275 249.519 397.196 245.597 397.196 239.95C397.196 232.89 402.844 229.125 405.197 228.655C406.138 226.145 409.997 221.125 417.903 221.125C427.786 221.125 430.139 230.041 430.139 234.302C430.139 238.538 428.728 247.009 417.903 247.009C409.211 247.009 408.491 241.361 408.491 239.008" stroke="black" stroke-width="4" stroke-linecap="round"/>
<path d="M461.199 301.129L488.966 348.19C489.436 349.445 490.095 352.238 488.966 353.367C487.554 354.779 484.26 354.308 482.377 352.426C480.871 350.92 465.592 329.68 457.435 318.542" stroke="black" stroke-width="4"/>
<path d="M426.374 270.539L441.904 282.775H460.729" stroke="black" stroke-width="4"/>
<path d="M406.608 307.248L410.373 264.893C410.844 258.775 412.538 255.104 415.55 253.598C419.315 251.715 424.962 251.715 428.727 256.422C431.739 260.187 440.65 268.658 444.728 272.423H465.435C468.416 272.423 474.095 275.058 472.965 281.835M433.433 276.188C432.178 279.325 429.386 285.694 428.257 286.071" stroke="black" stroke-width="4"/>
<path d="M428.728 294.07H455.553C458.063 294.07 462.706 296.141 461.2 304.424C459.694 312.707 452.415 341.759 448.964 355.25C447.866 356.035 445.481 357.039 444.728 354.78C443.975 352.521 444.415 321.366 444.728 307.248H435.316" stroke="black" stroke-width="4"/>
<path d="M412.278 312.895V292.35C412.135 290.31 412.62 286.142 415.696 285.793C418.773 285.443 424.955 285.647 427.662 285.793C428.801 285.938 431.08 286.842 431.08 289.29C431.08 292.35 429.798 293.224 427.662 294.972C425.953 296.371 421.822 299.635 419.97 301.092C419.685 301.53 419.115 302.579 419.115 303.278C419.115 303.978 419.115 309.981 419.115 312.895" stroke="black" stroke-width="4"/>
<path d="M389.666 307.719H412.256" stroke="black" stroke-width="4"/>
<path d="M417.903 307.248H446.611" stroke="black" stroke-width="4"/>
<path d="M390.137 308.659L382.607 270.539C382.294 268.029 382.231 262.915 384.49 262.539C387.314 262.068 389.666 261.598 391.549 269.127C393.055 275.151 397.51 297.678 399.549 308.188" stroke="black" stroke-width="4"/>
<path d="M392.02 316.66H434.375" stroke="black" stroke-width="4"/>
<path d="M413.667 341.602L430.139 350.543" stroke="black" stroke-width="4"/>
<path d="M413.667 341.133L397.195 350.075" stroke="black" stroke-width="4"/>
<path d="M413.197 330.779V352.428" stroke="black" stroke-width="4"/>
<path d="M497.907 291.246L512.967 349.602C513.438 351.485 515.038 355.344 517.673 355.72C520.967 356.191 521.909 351.642 520.026 347.249C518.816 344.425 509.516 308.188 504.966 290.305" stroke="black" stroke-width="4"/>
<path d="M494.613 265.363L499.319 277.599V282.305" stroke="black" stroke-width="4"/>
<path d="M484.731 265.363L489.908 276.658H480.966V282.305" stroke="black" stroke-width="4"/>
<path d="M491.79 224.42V264.422" stroke="black" stroke-width="4"/>
<path d="M491.79 258.303H469.2" stroke="black" stroke-width="4"/>
<path d="M358.605 359.016H563.323" stroke="black" stroke-width="4" stroke-linecap="round"/>
<rect x="469.788" y="224.537" width="28.9431" height="40.2378" stroke="black" stroke-width="4"/>
<rect x="452.846" y="282.893" width="62.8274" height="7.29477" rx="3.64738" stroke="black" stroke-width="4"/>
<path d="M435.786 308.189C435.786 320.665 425.673 330.779 413.197 330.779C400.721 330.779 390.137 320.195 390.137 307.719" stroke="black" stroke-width="4"/>
<path d="M466.394 348.661L481.454 290.305H474.377C469.827 308.188 460.545 343.484 459.335 346.308C457.453 350.7 458.394 355.25 461.688 354.779C464.324 354.402 465.924 350.543 466.394 348.661Z" fill="white" stroke="black" stroke-width="4"/>
<circle cx="399.078" cy="352.427" r="3.20615" fill="white" stroke="black" stroke-width="3"/>
<circle cx="413.196" cy="352.427" r="3.20615" fill="white" stroke="black" stroke-width="3"/>
<circle cx="427.316" cy="352.427" r="3.20615" fill="white" stroke="black" stroke-width="3"/>
<circle cx="130.896" cy="338.777" r="8.35354" stroke="black" stroke-width="4"/>
<path d="M147.72 338.778C147.72 348.07 140.187 355.603 130.895 355.603C121.603 355.603 114.07 348.07 114.07 338.778C114.07 333.967 115.469 330.411 117.822 328.058C120.015 325.865 123.253 324.501 127.578 324.326C129.19 326.236 131.259 327.559 133.35 328.588C135.052 329.425 136.918 330.132 138.639 330.784C139.29 331.03 139.919 331.268 140.512 331.503C142.792 332.407 144.606 333.282 145.858 334.422C147.01 335.471 147.72 336.773 147.72 338.778Z" stroke="black" stroke-width="4"/>
<path d="M109.718 358.543H314.435" stroke="black" stroke-width="4" stroke-linecap="round"/>
<path d="M103.129 313.364L139.837 327.953C138.582 330.149 136.072 334.823 136.072 335.953C124.463 331.56 100.87 322.587 99.364 321.834C97.4815 320.893 96.1508 318.38 97.4815 315.717C98.8934 312.893 101.246 312.894 103.129 313.364Z" fill="white" stroke="black" stroke-width="4"/>
<path d="M140.779 291.246L138.426 297.835C137.955 299.247 137.014 303.953 139.837 305.365C144.15 307.521 146.426 304.894 147.367 303.953C148.12 303.2 149.72 298.619 151.132 295.482" stroke="black" stroke-width="4"/>
<path d="M156.309 298.305L146.426 322.777" stroke="black" stroke-width="4"/>
<path d="M165.25 301.128L134.189 287.951L121.953 320.424" stroke="black" stroke-width="4"/>
<path d="M159.132 278.068L151.603 295.481" stroke="black" stroke-width="4"/>
<path d="M142.19 292.186L150.191 274.303L170.427 283.244" stroke="black" stroke-width="4"/>
<path d="M155.838 275.714L160.073 265.831C160.701 265.047 162.869 262.757 165.25 263.948C168.074 265.361 167.603 267.87 167.133 269.596L163.368 279.008" stroke="black" stroke-width="4"/>
<path d="M182.663 268.186V279.01" stroke="black" stroke-width="4"/>
<path d="M158.19 322.777L177.486 268.656" stroke="black" stroke-width="4"/>
<path d="M166.662 269.127L192.075 268.186V278.068H182.663L165.25 326.071" stroke="black" stroke-width="4" stroke-linejoin="round"/>
<path d="M239.608 245.125L193.487 267.715" stroke="black" stroke-width="4" stroke-linecap="round"/>
<path d="M215.136 252.656L183.605 261.127C180.781 261.912 175.228 264.328 175.604 267.716" stroke="black" stroke-width="4" stroke-linecap="round"/>
<path d="M250.902 314.777L267.374 351.014C268.315 353.054 270.927 356.662 273.962 356.662C278.669 356.662 277.727 350.544 277.257 347.72C276.88 345.461 268.315 316.346 264.08 302.07" stroke="black" stroke-width="4" stroke-linecap="round"/>
<path d="M220.783 249.36C222.195 248.262 225.772 245.972 228.784 245.595C231.796 245.219 241.333 244.497 245.726 244.184C248.706 244.184 255.044 246.348 256.55 255.008C258.056 263.667 260.315 275.558 261.256 280.421C262.197 285.284 261.727 292.751 259.844 296.893C257.962 301.034 240.235 334.699 231.607 351.013C230.509 353.209 227.56 357.319 224.548 356.19C220.783 354.778 221.724 349.131 222.666 345.366C223.419 342.354 233.333 313.678 238.196 299.716" stroke="black" stroke-width="4" stroke-linecap="round"/>
<path d="M227.842 264.891L237.725 294.069" stroke="black" stroke-width="4" stroke-linecap="round"/>
<path d="M240.078 260.656L199.135 275.245" stroke="black" stroke-width="4" stroke-linecap="round"/>
<circle cx="233.49" cy="229.595" r="11.1772" stroke="black" stroke-width="4"/>
<circle cx="153.485" cy="338.778" r="16.8246" fill="white" stroke="black" stroke-width="4"/>
<path d="M108.306 315.719L105.012 324.19" stroke="black" stroke-width="4"/>
<circle cx="153.484" cy="338.777" r="8.35354" stroke="black" stroke-width="4"/>
<defs>
<linearGradient id="paint0_linear" x1="271.306" y1="108.177" x2="271.306" y2="359.015" gradientUnits="userSpaceOnUse">
<stop stop-color="#FDA93B"/>
<stop offset="1" stop-color="#FAEDDC" stop-opacity="0.47"/>
</linearGradient>
<linearGradient id="paint1_linear" x1="369.194" y1="108.177" x2="369.194" y2="359.015" gradientUnits="userSpaceOnUse">
<stop stop-color="#FDA93B"/>
<stop offset="1" stop-color="#FAEDDC" stop-opacity="0.65"/>
</linearGradient>
</defs>
</svg>
