<svg width="640" height="455" viewBox="0 0 640 455" fill="none" xmlns="http://www.w3.org/2000/svg">
<rect width="640" height="455" fill="#F8F8F8"/>
<path d="M166 272.125L402.107 228.311M402.107 228.311L467.827 362.998M402.107 228.311V109.041" stroke="#B6B6B6" stroke-width="5"/>
<path d="M237.4 306.457L255.25 158.788L281.214 145.807L331.924 303.211L237.4 306.457Z" fill="#FBA334"/>
<ellipse cx="268.676" cy="153.989" rx="15.0347" ry="10.9534" transform="rotate(-41.5867 268.676 153.989)" fill="#F96B00"/>
<ellipse cx="284.865" cy="306.829" rx="47.4648" ry="30.0205" fill="#F86A00"/>
<path d="M396.428 319.439L378.578 171.771L352.614 158.789L301.904 316.194L396.428 319.439Z" fill="#FBA334"/>
<ellipse rx="15.0347" ry="10.9534" transform="matrix(-0.747953 -0.663752 -0.663752 0.747953 365.152 166.971)" fill="#F96B00"/>
<ellipse rx="47.4648" ry="30.0205" transform="matrix(-1 0 0 1 348.963 319.811)" fill="#F86A00"/>
<path fill-rule="evenodd" clip-rule="evenodd" d="M306.701 333.562C321.927 328.563 332.33 318.5 332.33 306.9C332.33 301.973 330.453 297.323 327.127 293.221C311.901 298.219 301.498 308.283 301.498 319.883C301.498 324.81 303.375 329.46 306.701 333.562Z" fill="#E71600"/>
<path d="M327.056 293.221C319.348 284.702 315.291 283.89 312.451 282.268L303.526 311.071C307.421 301.984 321.106 294.708 327.056 293.221Z" fill="#F03E00"/>
<path d="M312.451 282.266L318.942 263.199L327.056 293.22C325.433 290.786 318.131 284.7 312.451 282.266Z" fill="#F26900"/>
<path d="M346.123 185.309L231.721 284.295M346.123 185.309L466.205 243.727M346.123 185.309L282.025 49M231.721 284.295V406M231.721 284.295L166.812 153.666M231.721 406L466.205 362.186V243.727M231.721 406L166.812 271.314V153.666M466.205 243.727L402.918 109.041L282.025 49M282.025 49L166.812 153.666" stroke="#111111" stroke-width="5" stroke-linejoin="round"/>
</svg>
