<svg width="40" height="40" fill="none" xmlns="http://www.w3.org/2000/svg"><circle cx="20" cy="20" r="20" fill="#4A6C8F"/><path d="M25.277 20.734c-.259-.35-.184-.505 0-.818.003-.004 2.139-3.165 2.359-4.237l.001-.001c.11-.39 0-.678-.529-.678H25.36c-.445 0-.65.246-.76.522 0 0-.891 2.284-2.151 3.765-.407.428-.595.565-.817.565-.11 0-.28-.137-.28-.528v-3.646c0-.469-.124-.678-.493-.678h-2.75a.431.431 0 00-.446.422c0 .444.63.547.696 1.797v2.712c0 .594-.101.703-.325.703-.594 0-2.038-2.293-2.893-4.918-.173-.51-.341-.715-.79-.715H12.6c-.5 0-.6.246-.6.522 0 .487.595 2.91 2.765 6.11C16.212 23.815 18.25 25 20.103 25c1.114 0 1.25-.263 1.25-.715 0-2.087-.1-2.284.457-2.284.259 0 .704.137 1.744 1.19 1.19 1.25 1.384 1.809 2.05 1.809h1.75c.498 0 .75-.263.605-.781-.332-1.091-2.58-3.335-2.682-3.485z" fill="#fff"/></svg>