<svg width="16" height="10" fill="none" xmlns="http://www.w3.org/2000/svg"><path d="M13.277 5.734c-.258-.35-.184-.505 0-.818.004-.004 2.139-3.165 2.359-4.237l.001-.001c.11-.39 0-.678-.529-.678H13.36c-.445 0-.65.246-.76.522 0 0-.891 2.284-2.151 3.765-.407.428-.595.565-.817.565-.11 0-.28-.137-.28-.528V.678C9.352.209 9.228 0 8.859 0h-2.75a.431.431 0 00-.446.422c0 .444.63.547.696 1.797V4.93c0 .594-.101.703-.324.703-.595 0-2.039-2.293-2.894-4.918C2.967.206 2.8 0 2.35 0H.6C.1 0 0 .247 0 .523c0 .487.595 2.91 2.765 6.11C4.212 8.815 6.25 10 8.103 10c1.114 0 1.25-.263 1.25-.715 0-2.087-.1-2.284.457-2.284.259 0 .704.137 1.744 1.19 1.19 1.25 1.384 1.809 2.05 1.809h1.75c.498 0 .75-.263.605-.781-.332-1.091-2.58-3.335-2.682-3.485z" fill="#fff"/></svg>